{"title":"Silent Hill Revelation 3D 2012 720p TS XViD - INSPiRAL","uid":7813844,"size":2650215295,"categoryP":"video","categoryS":"hd___movies","magnet":"?xt=urn:btih:a6bb0ba1206440ec0004ae74d8c86c0ff83fab7e&amp;dn=Silent+Hill+Revelation+3D+2012+720p+TS+XViD+-+INSPiRAL&amp;tr=udp%3A%2F%2Ftracker.openbittorrent.com%3A80&amp;tr=udp%3A%2F%2Fopen.demonii.com%3A1337&amp;tr=udp%3A%2F%2Ftracker.coppersurfer.tk%3A6969&amp;tr=udp%3A%2F%2Fexodus.desync.com%3A6969","seeders":0,"leechers":1,"uploader":"Acesn8s","files":-1,"time":1352598254,"description":"SOURCES:\n\nVIDEO -  MATiNE THANKS\nAUDIO -  Jiinx/UNiQUE THANKS\nSUBS  - None Add\n\nSTATS:\n\nVideo\nID                               : 0\nFormat                           : MPEG-4 Visual\nFormat profile                   : Advanced Simple@L5\nFormat settings, BVOP            : 2\nFormat settings, QPel            : No\nFormat settings, GMC             : No warppoints\nFormat settings, Matrix          : Default (MPEG)\nMuxing mode                      : Packed bitstream\nCodec ID                         : XVID\nCodec ID/Hint                    : XviD\nDuration                         : 1h 27mn\nBit rate                         : 3 843 Kbps\nWidth                            : 1 280 pixels\nHeight                           : 528 pixels\nDisplay aspect ratio             : 2.40:1\nFrame rate                       : 25.000 fps\nColor space                      : YUV\nChroma subsampling               : 4:2:0\nBit depth                        : 8 bits\nScan type                        : Progressive\nCompression mode                 : Lossy\nBits/(Pixel*Frame)               : 0.227\nStream size                      : 2.34 GiB (96%)\nWriting library                  : XviD 64\n\nAudio\nID                               : 1\nFormat                           : MPEG Audio\nFormat version                   : Version 1\nFormat profile                   : Layer 3\nCodec ID                         : 55\nCodec ID/Hint                    : MP3\nDuration                         : 1h 27mn\nBit rate mode                    : Constant\nBit rate                         : 128 Kbps\nChannel(s)                       : 2 channels\nSampling rate                    : 44.1 KHz\nCompression mode                 : Lossy\nStream size                      : 79.8 MiB (3%)\nAlignment                        : Split accross interleaves\nInterleave, duration             : 40 ms (1.00 video frame)\nInterleave, preload duration     : 500 ms\n\n\nIMDB: &lt;a href=&quot; http://www.imdb.com/title/tt0938330/&quot; rel=&quot;nofollow&quot; target=&quot;_NEW&quot;&gt; http://www.imdb.com/title/tt0938330/&lt;/a&gt;\n\n\n\n\nWhen her father disappears, Heather Mason is drawn into a strange and terrifying alternate reality that holds answers to the horrific nightmares that have plagued her since childhood.\n\n\n\n\n\nVideo ....pretty good,specially considering its a dark film.Worse thing about it was the AR ,video slanted and\nalso now and again the video seemed to change and contained loads of noise.\nAudio some nice line from jiinx AGAIN ...not his/hers best,seemed to have alot of noise and levels about all over the\nplace.....but still decent stuff.\n\n\nWORKDONE:\n\nVideo ...i have opted to fix the perspective so heads don't seem to slant anymore...still not dead right because just to do\nthis i had to crop some of the video ( hence the different res etc...on this release ) and didn't want to crop anymore.\nAlso changed the brightness,contrast,rgb colours,sat,intes....aswell as using a HQ smoother before finally adding some\nsharpness back ....\n\nAudio ....stripped from UNiQUE's syncd release and dropped in AA,lowered the DB's by -4.5 ,then opened up the eq bands and\nbalanced them out better,well to what i think is better lol.Lowered a few channels right down due to the hiss in them,\nbefore resaving as mp3 and remuxing.\n\nEnjoy Folks! :)\n\n\nScreenshots[/color][/b]\n &lt;a href=&quot;\nhttp://i.imgrz.com/b5Gqr.png&quot; rel=&quot;nofollow&quot; target=&quot;_NEW&quot;&gt;\nhttp://i.imgrz.com/b5Gqr.png&lt;/a&gt; &lt;a href=&quot;\nhttp://i.imgrz.com/HzW83.png&quot; rel=&quot;nofollow&quot; target=&quot;_NEW&quot;&gt;\nhttp://i.imgrz.com/HzW83.png&lt;/a&gt; &lt;a href=&quot;\nhttp://i.imgrz.com/iaCPA.png&quot; rel=&quot;nofollow&quot; target=&quot;_NEW&quot;&gt;\nhttp://i.imgrz.com/iaCPA.png&lt;/a&gt; &lt;a href=&quot;\nhttp://i.imgrz.com/HcGPY.png&quot; rel=&quot;nofollow&quot; target=&quot;_NEW&quot;&gt;\nhttp://i.imgrz.com/HcGPY.png&lt;/a&gt;","torrent":{"xt":"urn:btih:a6bb0ba1206440ec0004ae74d8c86c0ff83fab7e","amp;dn":"Silent+Hill+Revelation+3D+2012+720p+TS+XViD+-+INSPiRAL","amp;tr":["udp%3A%2F%2Ftracker.openbittorrent.com%3A80","udp%3A%2F%2Fopen.demonii.com%3A1337","udp%3A%2F%2Ftracker.coppersurfer.tk%3A6969","udp%3A%2F%2Fexodus.desync.com%3A6969"],"infoHash":"a6bb0ba1206440ec0004ae74d8c86c0ff83fab7e","infoHashBuffer":{"type":"Buffer","data":[166,187,11,161,32,100,64,236,0,4,174,116,216,200,108,15,248,63,171,126]},"announce":[],"urlList":[]}}